<?xml version="1.0" standalone="no"?>
<!DOCTYPE svg PUBLIC "-//W3C//DTD SVG 20010904//EN"
 "http://www.w3.org/TR/2001/REC-SVG-20010904/DTD/svg10.dtd">
<svg version="1.0" xmlns="http://www.w3.org/2000/svg"
 width="500.000000pt" height="500.000000pt" viewBox="0 0 500.000000 500.000000"
 preserveAspectRatio="xMidYMid meet">

<g transform="translate(0.000000,500.000000) scale(0.100000,-0.100000)"
fill="#000000" stroke="none">
<path d="M2047 3104 c-15 -8 -25 -19 -21 -25 4 -6 12 -5 22 3 19 16 14 5 -34
-63 -18 -25 -41 -66 -53 -90 -11 -24 -21 -39 -22 -34 0 6 -4 -1 -8 -14 -11
-40 -31 -38 -31 3 0 40 -14 47 -31 15 -6 -12 -7 -19 -2 -16 5 3 17 -11 27 -33
14 -32 15 -42 4 -59 -17 -28 -48 -27 -49 2 -2 31 -2 29 5 57 l7 25 -15 -25
c-9 -14 -15 -37 -16 -52 0 -16 -4 -28 -9 -28 -5 0 -16 -18 -25 -40 -14 -37
-15 -44 -1 -70 19 -37 19 -46 0 -30 -18 15 -19 7 -3 -23 10 -21 10 -21 -7 -7
-17 14 -17 14 -7 -7 15 -28 15 -33 -2 -33 -8 0 -17 -4 -20 -9 -4 -5 3 -7 15
-4 11 3 23 12 26 19 6 17 23 8 23 -12 0 -8 -4 -13 -8 -10 -5 3 -9 -1 -9 -9 0
-8 5 -11 11 -8 6 4 5 0 -1 -8 -7 -9 -9 -20 -4 -25 16 -17 20 -69 7 -86 -7 -10
-23 -18 -36 -18 -18 0 -20 -3 -11 -14 10 -12 9 -13 -7 -9 -18 4 -19 2 -9 -36
10 -36 9 -42 -7 -54 -12 -9 -16 -19 -11 -27 5 -8 4 -11 -3 -6 -13 8 -46 -49
-37 -64 3 -5 1 -11 -5 -15 -8 -5 -15 -44 -7 -45 1 0 27 -10 57 -20 48 -18 30
-22 -25 -6 -11 4 -6 0 10 -8 34 -17 167 -20 200 -6 14 7 9 8 -20 4 -39 -5 -38
-4 13 14 29 11 55 22 58 25 7 7 -24 105 -36 112 -4 2 -1 -14 7 -36 7 -23 12
-47 10 -53 -3 -6 -8 3 -12 19 -5 17 -15 41 -24 54 -12 19 -13 25 -3 29 10 3 9
9 -4 23 -13 14 -15 29 -11 66 6 41 5 46 -7 31 -8 -11 -25 -18 -42 -17 l-29 1
29 7 c34 7 37 24 6 29 -30 5 -28 65 4 97 18 18 21 25 10 29 -8 3 -14 0 -14 -7
0 -8 -4 -6 -10 3 -5 8 -9 24 -9 35 1 17 2 17 7 -3 8 -27 22 -30 34 -9 5 9 20
14 38 13 16 -1 30 1 30 6 0 7 -15 12 -33 9 -4 0 -6 2 -6 6 3 19 -2 25 -14 15
-19 -16 -20 24 -3 68 8 19 20 57 28 83 12 47 40 69 67 53 5 -4 12 -2 16 4 4 6
11 8 16 5 8 -5 13 18 7 29 -2 2 4 12 13 22 30 36 31 49 2 19 -20 -20 -26 -33
-19 -37 10 -7 6 -9 -19 -8 -3 0 -19 -7 -36 -16 -41 -21 -57 -6 -34 32 9 16 14
21 11 12 -3 -10 -9 -26 -12 -35 -3 -10 4 -1 16 20 12 22 19 45 16 53 -3 8 -1
14 5 14 19 0 109 42 109 52 0 5 -18 -2 -40 -14 -25 -15 -42 -19 -47 -13 -5 6
-7 9 -5 8 2 -1 22 34 44 78 23 43 44 79 48 79 4 0 7 7 7 15 0 18 -5 18 -40 -1z
m-138 -353 c-6 -18 -13 -30 -15 -28 -2 2 1 18 7 36 6 18 13 30 15 28 2 -2 -1
-18 -7 -36z m-57 -66 c-2 -14 -9 -25 -14 -25 -5 0 -6 -4 -3 -10 3 -5 0 -7 -9
-4 -18 7 -30 56 -21 85 l7 21 22 -22 c16 -14 22 -28 18 -45z m22 -44 c-4 -17
-9 -30 -11 -27 -3 2 -2 19 2 36 9 41 17 33 9 -9z m-17 -63 c-3 -8 -6 -5 -6 6
-1 11 2 17 5 13 3 -3 4 -12 1 -19z m-20 -105 c-3 -10 -5 -4 -5 12 0 17 2 24 5
18 2 -7 2 -21 0 -30z m10 -175 c-3 -7 -5 -2 -5 12 0 14 2 19 5 13 2 -7 2 -19
0 -25z m-40 -10 c-3 -7 -5 -2 -5 12 0 14 2 19 5 13 2 -7 2 -19 0 -25z m53 -28
c11 -7 1 -9 -35 -9 -44 1 -46 2 -20 9 17 4 32 8 35 9 3 0 12 -4 20 -9z m-37
-80 c-2 -52 -12 -77 -20 -52 -3 6 -9 10 -14 6 -14 -8 -11 80 3 94 22 22 33 6
31 -48z m-96 15 c-7 -24 -13 -31 -19 -23 -11 19 -10 30 4 22 7 -5 9 -2 5 8 -6
16 0 28 14 28 4 0 2 -16 -4 -35z m120 -111 c-3 -3 -12 -4 -19 -1 -8 3 -5 6 6
6 11 1 17 -2 13 -5z"/>
<path d="M1961 3036 c-23 -24 -43 -49 -44 -57 -2 -8 -6 -19 -10 -26 -4 -6 -3
-14 3 -18 5 -3 12 7 15 22 8 38 21 59 35 55 6 -1 9 2 5 8 -3 5 -3 10 2 10 7 1
48 50 41 50 -2 0 -23 -20 -47 -44z"/>
<path d="M2081 2984 c0 -11 3 -14 6 -6 3 7 2 16 -1 19 -3 4 -6 -2 -5 -13z"/>
<path d="M2000 2754 c-8 -16 -26 -39 -40 -52 -22 -20 -22 -22 -3 -13 15 8 24
8 28 1 9 -15 -12 -38 -57 -61 -42 -22 -49 -30 -16 -21 13 3 19 1 15 -5 -12
-19 16 -33 32 -16 12 13 11 14 -8 8 -28 -9 -27 3 2 14 16 6 29 28 46 74 25 73
26 121 1 71z"/>
<path d="M2798 2553 c-5 -23 -11 -49 -14 -57 -6 -15 -3 -15 20 -5 15 7 22 15
17 18 -5 4 -11 24 -13 46 l-3 40 -7 -42z"/>
<path d="M3626 2542 c-9 -36 -6 -45 10 -34 5 4 7 21 4 37 l-6 30 -8 -33z"/>
<path d="M1409 2532 c-3 -20 -2 -29 4 -23 5 5 7 19 5 32 -3 20 -5 19 -9 -9z"/>
<path d="M3507 2442 c-14 -42 -29 -108 -32 -147 -4 -68 -4 -69 6 -20 5 28 21
92 35 143 14 52 24 95 22 97 -2 2 -16 -31 -31 -73z"/>
<path d="M2671 2474 c0 -11 3 -14 6 -6 3 7 2 16 -1 19 -3 4 -6 -2 -5 -13z"/>
<path d="M2840 2452 c-27 -13 -44 -35 -74 -93 -38 -75 -38 -77 -21 -103 30
-45 55 -31 96 52 39 77 56 139 42 153 -5 5 -24 1 -43 -9z m34 -24 c-32 -107
-77 -192 -97 -185 -19 6 -20 62 -1 99 41 81 117 147 98 86z"/>
<path d="M3133 2445 c-38 -30 -73 -116 -73 -180 0 -51 7 -55 38 -22 38 40 73
132 70 181 l-3 46 -32 -25z m24 -44 c-6 -52 -44 -138 -71 -160 -14 -12 -16
-10 -16 12 0 62 60 197 88 197 3 0 2 -22 -1 -49z"/>
<path d="M3379 2441 c-26 -22 -41 -46 -54 -88 -18 -56 -23 -118 -11 -130 8 -8
35 16 47 41 7 13 1 10 -16 -9 l-26 -30 5 52 c6 63 42 150 67 164 16 8 19 6 19
-18 0 -16 -4 -43 -9 -61 -6 -18 -6 -30 -1 -27 11 7 23 83 18 114 -3 21 -4 21
-39 -8z"/>
<path d="M3633 2444 c-33 -25 -42 -44 -23 -44 6 0 27 16 48 35 44 41 24 48
-25 9z"/>
<path d="M3006 2435 c-20 -31 -30 -31 -45 -2 -11 21 -11 21 -6 0 7 -25 -13
-110 -32 -138 -7 -11 -13 -24 -13 -29 0 -6 7 0 16 12 20 29 30 28 42 -5 l10
-28 1 35 c1 41 23 126 40 158 16 30 7 28 -13 -3z"/>
<path d="M3211 2430 c0 -19 -8 -57 -16 -84 -15 -49 -14 -79 1 -34 6 20 9 16
20 -27 l12 -50 1 55 c1 55 23 132 44 160 10 13 10 13 -5 2 -10 -8 -20 -22 -23
-33 -10 -29 -23 -23 -28 14 l-4 32 -2 -35z"/>
<path d="M2661 2434 c0 -11 3 -14 6 -6 3 7 2 16 -1 19 -3 4 -6 -2 -5 -13z"/>
<path d="M3462 2429 c-1 -15 -9 -46 -17 -69 -22 -62 -17 -73 6 -16 11 27 18
63 16 80 -3 28 -4 28 -5 5z"/>
<path d="M2651 2394 c0 -11 3 -14 6 -6 3 7 2 16 -1 19 -3 4 -6 -2 -5 -13z"/>
<path d="M2642 2340 c0 -19 2 -27 5 -17 2 9 2 25 0 35 -3 9 -5 1 -5 -18z"/>
<path d="M3633 2362 c-9 -6 -10 -17 -2 -45 12 -44 21 -49 13 -7 -4 18 -1 36 6
45 13 16 3 20 -17 7z"/>
<path d="M2310 2343 c-1 -5 -5 -27 -9 -51 -6 -29 -5 -40 1 -34 10 10 21 92 12
92 -2 0 -4 -3 -4 -7z"/>
<path d="M3376 2303 c-6 -14 -5 -15 5 -6 7 7 10 15 7 18 -3 3 -9 -2 -12 -12z"/>
<path d="M3566 2295 c-4 -17 -9 -39 -13 -50 l-5 -20 16 20 c13 17 17 18 26 5
13 -20 11 -3 -4 40 l-13 35 -7 -30z"/>
<path d="M2374 2264 c-4 -10 -14 -28 -23 -38 -15 -18 -15 -18 7 -5 22 14 39
46 28 56 -3 3 -9 -3 -12 -13z"/>
<path d="M2633 2245 c0 -22 2 -30 4 -17 2 12 2 30 0 40 -3 9 -5 -1 -4 -23z"/>
<path d="M2710 2215 c0 -8 4 -15 10 -15 5 0 7 7 4 15 -4 8 -8 15 -10 15 -2 0
-4 -7 -4 -15z"/>
<path d="M2335 2020 c-3 -5 -2 -10 4 -10 5 0 13 5 16 10 3 6 2 10 -4 10 -5 0
-13 -4 -16 -10z"/>
</g>
</svg>
